<svg xmlns="http://www.w3.org/2000/svg" viewBox="0 0 1368 1191"><path fill="#fff" d="M434 444h23l1 102 5-14q12-23 34-32 30-8 56 5 20 14 26 36l1-97h24l1 77 6-8q15-15 37-16a55 55 0 0 1 45 19l-5-16h26l36 107 1 3 1 6h2l1-2q1-10 6-20l1-3 11-35 7-19 12-37h40v22h2l1-3q6-13 20-19 20-6 39 1 12 7 19 20l2 1 1-2q8-14 24-20 19-6 40 1 17 8 22 26l2 10 1-3a68 68 0 0 1 17-23q20-15 45-14t42 19q8 10 12 22l1-38h24l1 42 7-16 7-9 2-2q17-17 41-18 27-1 48 16 9 12 14 25l1-38h22v21h2v-2q4-11 15-17 17-7 36-4v24l-8-1q-18-1-33 9-12 13-10 31l-1 34v48h-23l-1-30-5 9q-7 10-19 16l-2 1c-16 8-38 9-55 3q-25-10-36-36l-2-6-1 43h-24l-1-30-5 9q-7 10-19 16l-2 1c-16 8-38 9-55 3-17-7-26-17-35-33l-1 34h-24v-81c0-18 0-18-7-34q-9-9-22-8-11 0-21 6-12 13-11 32v3l-1 32v50h-23v-9l-1-82v-2q1-14-7-24-12-8-28-6-12 4-20 15-6 12-5 26v3l-1 31v48h-23l-1-117-25 68-7 18-6 17c-16 43-16 43-25 53l-2 2q-15 12-34 10l-7-1v-20h8q11 0 19-8 8-10 10-23l-1-5-18-47-1-3-10-26v3c0 25-3 48-21 66a56 56 0 0 1-42 15q-23 0-38-17l-5-7-1 22h-23l-1-32-6 11q-7 10-19 16l-2 1c-16 8-38 9-55 3q-26-10-36-36l-3-9-1 46h-22v-23h-2l-1 2q-7 14-22 19-23 8-47 0-21-12-30-34l-1 36h-22v-21h-2l-1 2q-9 15-25 19-23 6-45-4-8-4-14-12l-1 16h-24v-81c0-18 0-18-7-34q-9-9-22-8-11 0-21 6-12 13-11 32v3l-1 32v50h-23v-9l-1-82v-2q1-14-7-24-12-8-28-6-12 4-20 15-6 12-5 26v3l-1 31v48H28V500h22v22h2l1-3q6-13 20-19 20-6 39 1 12 7 19 20l2 1 1-2q8-14 24-20 19-6 40 1 14 7 21 22 4 19 4 37v19l1-1 2-2 1-2c14-16 40-15 59-16l22-1v-10q1-10-5-19c-9-9-21-9-33-8q-11 0-20 8l-4 8h-24q2-16 15-27 17-11 37-12h2q25-2 44 14 10 11 13 25l1-3q10-23 34-33 22-7 44 2 13 6 19 18l1 2h2zm-72 89q-13 24-10 51 4 21 19 34 15 9 33 5 16-5 24-21 12-28 2-57-6-16-22-24-27-9-46 12m131-5q-11 13-13 31h77q0-18-12-31a39 39 0 0 0-52 0m122 3a69 69 0 0 0-11 52q2 22 20 36 14 7 30 4 16-4 24-18c9-16 10-38 5-56q-5-15-18-25c-17-9-37-7-50 7m421-3q-11 13-13 31h77q0-18-12-31a39 39 0 0 0-52 0m145 0q-11 13-13 31h77q0-18-12-31a39 39 0 0 0-52 0m-936 60q-6 7-4 16 1 9 7 14 12 8 29 6 15-3 26-15 5-9 6-19v-13c-34-2-34-2-64 11m235-10c2 17 5 29 18 40q16 9 34 6 15-4 23-15l1-4h24v-27zm543 0c2 17 5 29 18 40q16 9 34 6 15-4 23-15l1-4h23v-27zm145 0c2 17 5 29 18 40q16 9 34 6 15-4 23-15l1-4h23v-27z"/><path fill="#b3c8d8" d="M901 506q7 6 11 13l3 3 1-2q8-14 24-20 19-6 40 1 17 8 22 26l2 10 1-3a68 68 0 0 1 17-23q20-15 45-14t42 19q8 10 12 22l1-38h24l1 42 7-16 7-9 2-2q17-17 41-18 27-1 48 16 9 12 14 25l1-38h22v21h2v-2q4-11 15-17 17-7 36-4v24l-8-1q-18-1-33 9-12 13-10 31v3l-1 31v48h-23l-1-30-5 9q-7 10-19 16l-2 1c-16 8-38 9-55 3q-25-10-36-36l-2-6-1 43h-24l-1-30-5 9q-7 10-19 16l-2 1c-16 8-38 9-55 3-17-7-26-17-35-33l-1 34h-24v-81c0-18 0-18-7-34q-9-9-22-8-11 0-21 6-12 13-11 32v3l-1 32v50h-23l-1-91v-2q1-14-7-24-12-8-28-6-12 4-20 15-6 12-5 26v3l-1 31v48h-23V500h22v22h2l1-3q6-13 20-19c15-5 33-4 46 6m135 22q-11 13-13 31h77q0-18-12-31a39 39 0 0 0-52 0m145 0q-11 13-13 31h77q0-18-12-31a39 39 0 0 0-52 0m-158 50c2 17 5 29 18 40q16 9 34 6 15-4 23-15l1-4h23v-27zm145 0c2 17 5 29 18 40q16 9 34 6 15-4 23-15l1-4h23v-27z"/><path fill="#b9ccd4" d="M1249 511q12 12 17 27l1-38h22v21h2v-2q4-11 15-17 17-7 36-4v24l-8-1q-18-1-33 9-12 13-10 31v3l-1 31v48h-23l-1-30-5 9q-7 10-19 16l-2 1c-16 8-38 9-55 3q-16-6-26-19l2 1h11q5-3 6-10v-4l3 3q16 13 36 10 12-1 21-9l3-5q1-4 6-5h9l11 1v-27h-89l1-5h-2v-2l-2-1 1-11h69c-4-21-4-21-18-35q-14-7-30-4-9 3-16 10h-2v-5l1-1v-7l1-4h-5v-8q9-5 19-7h2c18-3 38 1 52 13"/><path fill="#446b9a" d="M1122 500h24l1 42 7-16 9-11 13-10v8h5v8l-1 4v3q0 4-3 7-7 11-9 24h8v8l1 6h2l-1 5h-10c2 16 2 16 10 30q2 6-1 12-3 5-7 6-7 0-12-4-8-9-11-22l-1 43h-24l-1-30-5 9-4 6-3 2q-2 3-5 2h-2l1-4-8 3-7 1-2 1-5-1v-3l-4 2-3 1-4 2h-6l-4-1-1-3-4 1-3 1-3 2h-5v-2h-3v-3l-5-1 1-2v-12l2 1q18 12 39 7 12-3 18-13 1-4 6-5h9l11 1v-27h-29l4-1-2-1-4-2h-5v-3l2 1 1-2h-3l-1-5 7-1 3-3v2h3l1 13 11-4c0-5-1-5-4-9v-3h-2q-5-8-8-18l-5-9q-2-4-2-10l-3-1v-8h2l5-3v2l2-1 1-6q19 11 25 32z"/><path fill="#7393c0" d="m901 506 4 7v3h-4v2l2-1 4 1q2 5 1 9h-2l-2 3-3 1-2 1-1 11 2 1h-2l1 3-1 5q0 6 2 11l5 5v2h2l1 3 2 6v6l-2 3h2l-2 7h-13v-40l-1-4q1-14-7-25-12-8-28-6-12 4-20 15-6 12-5 26v3l-1 31v48h-23V500h22v22h2l1-3q6-13 20-19c15-6 34-4 46 6"/><path fill="#b3cad0" d="M1249 511q12 12 17 27l1-38h22v21h2v-2q4-11 15-17 17-7 36-4v24l-8-1q-18-1-33 9c-8 8-9 17-11 28h-3v-2h-2l-1 4-3-3 1-2h-2l-1 4-9 1 1-3h-2l-4 1-3 1h-8v-3h-6l-2 3-1-3v-2l-2-5q-3-15-16-25-13-7-30-4-9 3-16 10h-2v-5l1-1v-7l1-4h-5v-8q9-5 19-7h2c18-3 38 1 52 13"/><path fill="#848cc0" d="M1122 500h24l1 42 7-16 9-11c5-6 5-6 9-7l-1 8 7-1 1 5h-2l-1 3-2 6h-2v2l-2 4h2l-2 4h-3l-1 2-3 8-2 3-4 4-1-1-2 10-3 1v-2l-18 3 2 1-1 4-4 1-3-1h-2l-2-1-1 2-2-1v-5h-6l-1 6h2l-4 5h-18l4-1-2-1-4-2h-5v-3l2 1 1-2h-3l-1-5 7-1 3-3v2h3l1 13 11-4c0-5-1-5-4-9v-3h-2q-5-8-8-18l-5-9q-2-4-2-10l-3-1v-8h2l5-3v2l2-1 1-6q19 11 25 32z"/><path fill="#8fb1d4" d="m1100 553 4 7h2l6 12-5 2-3 1-5 1-1-13-4-1-2 3h-6v5h3l-1 3 5-1 1 3h3v2l-11 1h-63l2 9v3q2 11 10 20 4 8 3 18l3 1v3h3v2l2-1 14-4v4q9 1 16-3l5-1v3h6l1-1h3l6-3h6l-1 4 3 1a78 78 0 0 1-58 11c-13-3-27-10-34-22v-15l1-9v-12l-1-3v-12h2v-2h-2v-3l-1-9 12-1-1 3h77z"/><path fill="#adc0cb" d="M1096 505v11l-1-3-9 1v4l1 2v2l2 1 1 7-1-1q-14-12-32-10-14 3-24 14l-5 9q-2 5-8 5l-5-5-2 2-2-1-1 2v3l-1 3q0 3-4 5v8l-8-3v-2h3l-3-4 1-2 3 1v-3l2-1-7-1v-5l5-3-5-1v-2h7l1-3q7-12 16-22l2-2q12-11 28-13h2q23-4 44 7"/><path fill="#9cb2cc" d="M810 500h15v5l-2 2v11q0 4 2 7l1 11v7h-2v8l-1 4 1 10-1 2v2l-3 8-1 3q0 3-4 5v10l18 1v47h-23z"/><path fill="#b4c4d4" d="M1257 605h4l-2 5-2 5h7q-4 14-17 20l-5 3-2 1c-16 8-38 9-55 3q-16-6-26-19l2 1h11q5-3 6-10v-4l3 3q16 13 36 10 12-1 21-9l3-5q6-7 16-4"/><path fill="#a9b6c7" d="M1249 511q12 10 15 24h-5l-1-3h-3l1 4-2-1v-4l-4 1-1 5-2-1-7 2-1-2q-9-14-25-16-16-3-29 6l-4 4h-2v-5l1-1v-7l1-4h-5v-8q9-5 19-7h2c18-3 38 1 52 13"/><path fill="#89a6c7" d="M825 500h7v22h2l1-3q2-6 7-10l5 1 2 3 1-2 8-1h15v2h2v3l1 5h-3q-17-1-29 9-12 15-10 33v3l-1 31h-10l-8-1q-3-5-1-10l4-3 2-7 2-4v-5l1-2-1-2v-7l1-1 1-6v-5h2v-4l-1-8-1-6q-2-5-2-11v-4l2-6z"/><path fill="#979ac7" d="M1122 500h24l1 43h7l-1-7 4 3v10l-10 1v2h-2l-2-4-3 1-12 2h-8l1 5h-3l-1 4-8-1 4-5v3l2-1-1-2h2l-1-3q-5-2-8 1v-3l-1-7 5-2-1-7h3v-6l3-1 5 12z"/><path fill="#adc0cb" d="m1100 553 4 7h2l6 12-5 2-3 1-5 1-1-13-4-1-2 3h-6v5h3l-1 3 5-1 1 3h3v2l-10 1h-56v-19h69z"/><path fill="#b0c6d6" d="m903 566 11 7v6l4-3v67h-23v-48h13l1-5 1-2h-2l1-4 1-4-3-4v-6h-2z"/><path fill="#6f6fb0" d="M1176 505v8h5v8l-1 4v3q0 4-3 7-7 11-9 24h8l-1 8h-6v3l-2 1 2 2v4h-2l-1 2-3-1 1-5h-1v3q0 4-4 6-5 1-8-2v-2h-2l-1 3-3-1-1 3-4-4-2 1h-3l-2 1-7 2 1-5-2 1h-8l-4-1h-2l4-5h-2v-6h7l1 3-1 2 4-1q4 0 8 2l1-3h2v-2l-3-1q6-2 11-2l1-1h7v2q3-2 3-5l1-6h2l4-4v-2q3-7 8-11l2-2 1-1-4 1 2-3 2-4h2l3-9h2l-2-4-2 1-4-1v-7q1-3 5-4"/><path fill="#9da297" d="M1105 604h6l3 1h8v2h-6v4h4q-1 10-10 19l-6 2h-2l1-4-8 3-7 1-2 1-5-1v-3l-4 2-3 1-4 2h-6l-4-1-1-3-4 1-3 1-3 2h-5v-2h-3v-3l-5-1 1-2v-12l2 1q18 12 39 7 12-3 18-13 2-5 9-5"/><path fill="#b5cbd5" d="M1342 498v24l-8-1q-16-1-30 7l-4 2v-2h-4v2l-7-1q1-13 9-21c14-11 27-11 44-10"/><path fill="#828fb9" d="M1175 561h1v7l1 5h2l-1 5h-10c2 16 2 16 10 30q2 6-1 12-3 5-7 6-7 0-12-4-7-8-9-17l-1-2c-3-7-3-7-1-10h2l1-4 1 1 1-2 1-3 5-1 2-5 1-3 1-8q3 4 3 9l-1 1 2 1 1-3 2 1-3-7h3v-3l5-1z"/><path fill="#b6ccd2" d="M1288 530h1v5h2v-2h2v2l3 1-1 2q-4 9-5 20h-3v-2h-2l-1 4-3-3 1-2h-2l-1 4-9 1 1-3h-2l-4 1-3 1h-8v-3h-6l-2 3-6-21 4-3 5 1 1-4 4-1 1 3v-2l4-1v4h6l-4 1v2l3 1v2l1 4 12 3-1-2 1-5 5-2 1-4h5z"/><path fill="#acc3d5" d="M810 597h14q0 8-5 13l3-1 7 1 4-1v34h-23z"/><path fill="#b3c5d1" d="M1031 607c6 6 6 6 7 13v8l3 1v3h3v2l2-1 14-4v4q9 1 16-3l5-1v3h6l1-1h3l6-3h6l-1 4 3 1a77 77 0 0 1-59 11l-15-6z"/><path fill="#aabed2" d="M1031 505v9h4l-1 4h-3l1 2q2 12-5 23-3 4-7 4l-5-5-2 2-2-1-1 2v3l-1 3q0 3-4 5v8l-8-3v-2h3l-3-4 1-2 3 1v-3l2-1-7-1v-5l5-3-5-1v-2h7l1-3c5-8 16-30 27-30"/><path fill="#7078b1" d="M1271 604h19v39h-23v-17q-2-12 4-22"/><path fill="#423a94" d="M1140 440q7 3 10 10 2 9-2 16-4 6-11 6-8 2-15-4-6-7-4-15 1-7 7-11 7-4 15-2"/><path fill="#7574b0" d="M1096 506q13 7 19 19v2h-2v6h-3l2 5-5 5h1v8l2-1 3-1 3 2-1 2 1 4-2-1h-2l-2 2-4 1q-5-2-7-7l-3-10-5-9q-2-4-2-10l-3-1v-8h2l5-3v2l2-1z"/><path fill="#818bb1" d="M1246 605h15l-2 5-2 5h7q-1 8-9 14-6 3-12 1l-1-2h-8l-4 1-2-1v4l-7-1v-2h-9v4h-6v-2h-4v-3h6l1-4h3q16-1 28-13l2-3q2-4 4-3"/><path fill="#adc7ca" d="M1271 567q9 7 13 16v6h2v4h4v11h-19l-2 7c-4 4-4 4-9 5h-4c2-8 2-8 5-11h6v-21q0-4 3-7v-7z"/><path fill="#9eb8c2" d="M1241 507q10 3 16 12l2 4 1 2q4 4 4 10h-5l-1-3h-3l1 4-2-1v-4l-4 1-1 5-2-1-7 2-1-2-9-10-3-2v-2l2-1q6-3 8-8l1-2z"/><path fill="#9fb2cd" d="M810 500h11v9q-2 12 2 22h-2v2h2q1 10-5 16l-2 7-6 2z"/><path fill="#b4c8d4" d="M1079 499q9 2 17 6v11l-1-3-9 1v4l1 2v2l2 1 1 7-1-1q-16-12-35-10l1-4h-5l-1-4 8 3 1-9 2 4 5-1 1-2 6 3 3-1v-5l4-1z"/><path fill="#afb5cd" d="m1184 501 3 3h2l-1 5h2l1-4 4-1v-2l7-1-1 2 7 1-1 3-2-1v4l3-1v9l-3 1q-11 1-20 8l-6 3v-5l1-1v-7l1-4h-5v-8z"/><path fill="#adc2d2" d="M980 621h24v22h-24z"/><path fill="#95b2c9" d="m877 497 2 3h-2l1 2 1 3v8l5-3 1 3 4 7 1 2-2 4-13-7v-7h-2v-2l-23 1-1 3-2-1v-3l-4-1c8-10 22-13 34-12"/><path fill="#7e9fc5" d="m842 509 5 1 2 3 1-2 8-1h15v2h2v3l1 5h-3c-13-1-20 1-29 9l-4 5q-4 3-10 2c0-7 0-7 2-10l2-2 2 2-1 2h2v-5q3-2 7-2v-9l-4-1z"/><path fill="#514b95" d="m1115 526 3 4-1 5-1 3-1 2h2v2h2l1 1q3 3 7 3v2h7v-2h-2v-2l7-1v2h2v-2l2-1v-3l3 1 1 3h7l-1-7 4 3v10l-10 1v2h-2l-2-4-3 1-12 2h-8l1 5h-3l-1 4-8-1 4-5v3l2-1-1-2h2l-1-3q-5-2-8 1v-3l-1-7 5-2-1-7h3v-6z"/><path fill="#4c75b2" d="m828 506 2 1v4h2v11h2l1-3 4-7h5v9l-7 2 1 6-3-1-1-3h-2l-2 11 9-2-1 2-5 21h-4v-4h-3v-8q2-8 1-16l-3-6q-1-9 2-16z"/><path fill="#8f9880" d="m1105 604 17 1v2h-6v4h4q0 8-7 15l-2-1-9-3-1 4-4 1-2-10 2-1v-2l-3-1q2-9 11-9"/><path fill="#516cac" d="m895 557 4 5 3 3q4 3 3 5h2l1 3 2 6v6l-2 3h2l-2 7h-13z"/><path fill="#314d80" d="M1176 605q3 3 3 8-1 6-5 11-4 3-8 1-6-1-10-6-1-8 2-14 9-4 18 0"/><path fill="#9198c4" d="M1171 508v8l7-1 1 5h-2l-1 3-2 6h-2v2l-2 4h2l-2 4-6-2v-2l-4 1q-3-4-3-9l-3-1c11-15 11-15 17-18"/><path fill="#7f89b8" d="M1122 578h5l-1 5 2-1 13-4 3 4 1-1q2-3 6-3v2l3-1 1 2 2-2v3h2l-1 5-1-2h-4l-1 3q-1 4-5 6l-2 4-4-1-1-2-2 3h-7l1-6h3l1-5 5 1 2 4 1 2 4-2v-8h-5v2h-8l-2 4-2-1v-3l-4 1 3 1-3 3v-3h-2v-3h-2l1 3v5l4-1-1 9-5-2v-21"/><path fill="#b7cac6" d="M1237 627h5l1 3h5l1-1h5a56 56 0 0 1-38 16l-24-1v-1l23-1 2-4 4 3 2-6h-2l1-4 6 1v-4z"/><path fill="#7f81bb" d="M1154 527h3l3 8h4v2l4 2-4 8-1 2q-2 4-6 7l-1-1-2 10-3 1v-2h-6v-1l7-2-8-1-1-5 3-1-3-1v-6q3 2 2 5h2v-2l10-1-1-12-1 4v3l-8-1 2-6 2-4z"/><path fill="#b6c0d2" d="m1226 499-1 3h-8q4 0 7 2l1 2-5 1v2l-5 3h2l1 2 2 1-5 3v1l-7-1-1-8h-2v-4h2l1-2h-8l1-2h-6v2l-2 1-3 4-3 1 2-6-3 1-1-4q20-7 41-2"/><path fill="#8e9fbe" d="M1143 584h5v8l-4 3-6-7-2-1-1 5h-3l-1 6h5l2-3 3-1 4 3h1v7l-5-1 1-4-7 5-3 2-4 8-7-3-1 2v-2h-4v-4h6v-8l4 1v-3l1-4h-3l-1-8h2v3h4l-2-1 1-2 5 3 2-2h8z"/><path fill="#a8b9c7" d="M1063 497h5l2 1 9 1v3l-3 1v2l-3 4-2 1-2-3-3-1-2 4-4-1-1-2-2 7-8-3 1 3 5 1-1 4-6 2v-3l-5-1v-2h2v-2h2l-1-4h2v-4h4l1-4h2v-3z"/><path fill="#8e92c2" d="M1143 548v5l4 1-4 1v2l2 1-1 2 2-1q4 0 7 2-9 6-20 6l2 1-1 4-6 1-3-1-2-5-1-2v-7l3 1v2h2l1 2 1-4h3v3l2-2 2-1 1-2v2l4-1v-2l-8-2h-4v2h-2v-3l-7 1-2-3q4-2 10-1z"/><path fill="#5453a5" d="m1148 565-1 7 2-1v-4h6l1 4-3 1-1 6h-3l-1 3-3-1-1 3-4-4-2 1h-3l-2 1-7 2 1-5-2 1h-8l-4-1h-2l4-5h-2v-6h7l1 3-1 2 4-1v2l4 1v2h2l3-1 2-1h8l-1-7z"/><path fill="#8c8dc0" d="M1146 529v11h-2l-1 3h-2v2h-2v-2l-7 1v2h2v2h-7l-2-2-5-1-1-3h-2v-2h-2l1-7h3l2 5 2-4h4q6 1 11-3z"/><path fill="#becbda" d="M1146 626v17h-24v-11l9 1v-4h2l3-1h2l5-2z"/><path fill="#375bac" d="M833 573v23h-10l-8-1-2-8q2-4 7-7l6-2v-2q4-4 7-3"/><path fill="#b6cdd1" d="M1282 628v2l8-1v14h-23v-11l4-1 1-2z"/><path fill="#939ec4" d="M1140 440q6 3 9 8v5l-16-1 1-2h-2v2h-2v2h-3v-2h-7l-1 6h-1q-1-8 4-14 8-6 18-4"/><path fill="#5a58a4" d="M1142 501h4v25q1 3-2 5l-6 1-4 3h-4l-7 1-1-5 7-1v1l8-1q4-3 8-2v-2h-3l-1-5h-3v-4h-2l-1-2-3-1v-3h2v-5h2v-3l4-1 1 1z"/><path fill="#8ba2bc" d="m1160 588 3 1-1 4 4 1v2h-2l-1 2-2 5 3-2h7v-2h2l3 7-1-1q-5-2-11-1l-4 3h-3v12q-9-10-10-24h8v-2l-2-1 6-1z"/><path fill="#4a7cc0" d="m1025 594 2 3 2 3q3 10 2 22v15l-9-5v-2h7v-4h-6v-7l-1-6h-2l1-3-1-9 4-1v-2z"/><path fill="#889cb7" d="M1142 599v3l2 2h-2q-5 0-10 5v11q1 4 4 4h10l-1 3-14 2v4l-9-1v-21l6 2 1-3q3-5 8-8l-6-1v-1z"/><path fill="#a0abcd" d="M1104 512q7 5 11 13v2h-2v5h-8v2l-2 1 1 2-5-1-2-5 2-4-3-1-1-2-3 1 1-3h2l1-4h2l1-2 2 4h2v-3z"/><path fill="#9fb6cd" d="m895 599 14 1-1 4 2 4-2 1 3 1v4h-5v2h4v3h-15z"/><path fill="#acc5cd" d="m1285 513 4 3v13l7 1v-2h4l-3 7h-4v-2h-2v2h-9l-1-3-1 3h-2v-2l-2 1-4 3-3-1v-6l1-3q0-3 2-5h2v3l5 1v3l5-1-1-10z"/><path fill="#748cc3" d="M884 499q10 1 17 7 4 4 3 9l-5-1-1 2h2l-2 7-3 1-4-3v-2h-2q-4-5-4-12l1-2h5v-3h-7z"/><path fill="#6973a2" d="m1273 614 4 2-1 5 2-1 8-2 4 2v9l-8 1v-2l-10 1-1 3h-4v-16l5 2z"/><path fill="#919a98" d="m1097 614 1 4-3-1 2 10 4-2 1-4 9 4q1 3-2 5-3 3-7 2l1-4-8 3-7 1-2 1-5-1v-3l2-1v-2l1-2 3-1v-2q-1-3 3-5 3-2 7-2"/><path fill="#95b4cd" d="M903 509c7 5 7 5 8 10q2 7-2 12l-4 2v6l-2 7-2 8 2 1v11l-5-4v-15l-1-8 1-6 4-3 4-4h1v-6l-6-2v-2h4z"/><path fill="#94b6d8" d="m1017 573 3 1v2h3l1 6 1 4v9h-2v2l-3 3-1 2-3 1-3 3v-7l1-1v-8l-1-7 1-5 2-2z"/><path fill="#939fb9" d="M1248 555h8l-2 1 1 2 17-2v3l7-1 1-3h2v3l2 1 1-3h2v2h3v4h-9v2h-2v-2h-4v-2l-2 1-7 1v2h-2v-3h-7q-2 0-5 3l-2-1q-4-2-8-2l-2 1-10 1h-3v-4h15l2-1q2 1 4-3"/><path fill="#abb6ca" d="m1178 610 1 1q6 5 13 9v3l-6-1 1 8h6l1 5c-6 0-6 0-9-2v-2h-3v-3h-4l1-4v2h3l1-5-5-1v2l-1 2-3 1-3 7q-4 1-6-2l-2-2-2-2-2-2 2-1 3 1h8q5-3 6-10z"/><path fill="#8ca4ba" d="m1235 616 2 1-1 3-3 1-1 4 5-2-1 4-6 2-2-1v4l-7-1v-2h-9v4h-6v-2h-4v-3h6l1-4h3c11-2 11-2 21-7z"/><path fill="#5f79a0" d="M1261 605c-3 7-3 7-5 8l-2 1-1-2h-1l1 2h-6q3 2 7 3l-2 1-1 3-3 1-2-1v-4l-1 2-4 1-2 4v-11l1-2c3-9 13-7 21-6"/><path fill="#b4c0d3" d="m1100 553 4 7h2l6 12-5 2-3 1-5 1-1-13-4-1-2 3-6-2-1-2 1-2h14z"/><path fill="#b8ccda" d="M1004 613v8l-11 1h-9l-4-1v-9l10-1h9z"/><path fill="#bbc1d7" d="M1178 559h32l-2 5v3h-7v-3h2v-3h-1v2l-5 5-2 2-2-2-5-1h-5v-2h-3v-2h-2z"/><path fill="#aac0d2" d="M1014 541h3l1 4h8l-2 11-8 1h-4l1 3v6l-1 2v-3l-1-3-2-1v-10c0-6 0-6 2-8l1-1 1 1z"/><path fill="#9fb3ca" d="M1030 505h1v9h4l-1 4h-3l1 2q2 12-5 23-3 4-7 4l-3-2 1-5h4v-2l1-3 2-1 3-20v-5z"/><path fill="#567bb1" d="m828 506 2 1v4h2v11h2l1-3 4-7h5v9l-4 1-3 1h-6l-1 4-4-1q-3-6-2-13l2-6z"/><path fill="#9cadc2" d="m1094 561 1 2h3l1 13 5-2 3-1 4-3h2v3h2l-4 5h-18l4-1-2-1-4-2h-5v-3l2 1 1-2h-3l-1-5 7-1z"/><path fill="#90b1cf" d="m895 631 1 3 2-1q6-3 13-2l-1 5h-3v2h11v5h-23z"/><path fill="#90adca" d="M833 631v12h-23v-5l11-1v-6q6-2 12 0"/><path fill="#b5cbd2" d="m1241 515 2 1-1 2h2v5h3v-8q3 3 3 7v2l2 1 2 4h-5l-1 4v-7h-2v3c-11 2-11 2-14 0l-4-4 2-1 7-6 2-2z"/><path fill="#6c89ba" d="m903 567 2 1v2h2l1 3 2 6v6l-2 3h2l-2 7h-11v-2l6 1v-2l-7-1 2-10 6 1v-8z"/><path fill="#9292c4" d="M1176 559h2v4h2v2h3v2h4l6 3h-3l2 5h4v3h-18l1-5h-2v-2l-2-1z"/><path fill="#a09fc9" d="m1184 501 2 1 1 9v2q1 9-5 16l-3 1v-5l1-1v-7l1-4h-5v-8l4-2 2-1z"/><path fill="#7e9cc3" d="M825 500h7v11h-2l-2-4h-2v2l-1 4q-1 7 2 13 3 7 1 16l-2 5v6h3v4l3-1 1 2-8 1q-2-4-1-9v-7h2v-4l-1-8-1-6q-2-5-2-11v-4l2-6z"/><path fill="#96a9bd" d="M1271 580h2l-3 6q4 0 7-4l1-2 3 8-4-1v7h6l5 2-12 1h-9v-16z"/><path fill="#b3c5d0" d="M1057 559h15l-1 2-5 1h-4v2l-2 4h2v5h-2v2h6v-2h-2v-6h3l4 5-3 3h6l1 3h-21l2-4 1-5-4-3h5v-3l-2-1z"/><path fill="#95a7b9" d="m1066 561 1 3h4l2-2 2 1-2 9h2l1-7 5-1-3 4h4v5l-2 1-3 4-3-1v-2h-6l1-2-2-6h-3v6h2v2h-6v-2h2v-5h-2l2-6z"/><path fill="#b7c7d3" d="m1079 499 10 3v5q-3 2-7 3l-1-4-3 1v2l-3 5-11 1 2-9 6 3 3-1v-5l4-1z"/><path fill="#b0c8ce" d="M1271 567q9 7 13 16v10l-7 1v-7l4 1v-2l-2-1 1-2-2-1-2 2-6 2-1-3 3-1 1-2h-5l2-3v-7z"/><path fill="#a5b8ca" d="m980 621 9 1 1 2 4-2-1 4h2v-3l5-1 1 5q-4 3-9 2l2 1-3 4-11-1z"/><path fill="#60718d" d="M1111 605h11v2h-6v4h4q-1 8-6 14l-4-4v-2l-1 3h-2v-12h4z"/><path fill="#8da9c5" d="m876 502 3 4v7l5-3 1 3 4 7 1 2-2 4-13-7v-7l-2-1h2l1-6h-2v-2z"/><path fill="#b3c6d1" d="M1031 559h21l-2 3-6-1v2h2l-1 3h-2l-1-2-2-2h-3l-1 9h2l2 7h-9z"/><path fill="#b2b3d3" d="m1200 560 4 1-1 4-2 1 1 3h-3v6l7-1v-6h3l1-2 2 6h-2l-1 4 5 1v1h-16l-4-2-3-1-1-5 3-3 2 2 5-6-1-1z"/><path fill="#b8c3da" d="M1167 511v2l2 6v5h-2l1 5h-4l-1 2-1-1v2h-2v-3l-3 1v-3l-3-1z"/><path fill="#7a98ac" d="M1241 507q6 1 9 6l1 8 2 1-3 1-2-5-1 5h-3v-5l-3 1v-3l-2 1-2 2-3 2q-3 3-7 3v-2l2-1q6-3 8-8l1-2z"/><path fill="#828dbc" d="M1175 561h1v7l1 5h2l-1 5h-10v2h-2v2l-6 1 1-7 1-8q3 4 3 9l-1 1 2 1 1-3 2 1-3-7h3v-3l5-1z"/><path fill="#739cd0" d="m1022 557 1 2h8v19h-5l-1-7h-2l-1-5-1-3-1-4h2z"/><path fill="#b2bed1" d="M1146 626v9l-2 1v-4h-3v-3h-5l1 7h-3v2l-5 1v2h-6l-1-9 9 1v-4h2l3-1h2l5-2z"/><path fill="#adc4cc" d="m1263 544 15 5v5l3 1-2 4-5 1h-4l1-3h-6l1-2-1-7-1-2z"/><path fill="#798bad" d="m1168 606 5 3 1 8-4 4q-4 1-8-1-2-4-1-8 2-5 7-6"/><path fill="#5b63a5" d="M1271 604h19v12l-5-1-5 1 4-6h-4v-2h-2l-1 2-3-1-4 1z"/><path fill="#777ab6" d="M1122 500h24l-4 1-1 3-5-1v2l-2 6h-2v3l3 1-3 1-2-1v-5l2-1-1-2-4 3v-2l-5 2z"/><path fill="#6d9bcd" d="M980 637h24v6h-24z"/><path fill="#6763af" d="m1153 536 4 3v10l-10 1v2h-2l-2-4-4 1v-2h-2l-1-4h3v2h2v-2l2-1v-3l3 1 1 3h7z"/><path fill="#6361a9" d="M1107 543h1v8l2-1 3-1 3 2-1 2 1 4-2-1h-2l-2 2-5 1-4-4-1-7h2v-4l5 1z"/><path fill="#8ca7c7" d="m821 500 4 1-2 6v11q0 4 2 7l1 11v7h-2v6l-3 1v-7l1-4 1-6h-2l1-3-1-6q-3-9 0-19z"/><path fill="#7c7dbc" d="M1130 506h3l-3 9 2 1 1 5q-5 2-8-1l1 2-1 5h-3v-17l2-2 4 1z"/><path fill="#a1ab9f" d="m1087 619 1 4-2 1-3 4 4 1h-2q-5 0-11 3-5 3-12 2l-2-2 7 1v-2h2l3-1 1-2h-3v-2h2l1-3 5-2z"/><path fill="#6d72b2" d="m1114 558 4 1h2v4l3 1 1 7-2 2-2-1v-5h-6l-1 3h-2l-3-3-1-2-1-5-2-1z"/><path fill="#adb4c8" d="M1210 559q7-1 13 3-5 3-10 2l1 8-3-1-1-4-4 1 1 3-1 3 2 1h-9v-6h3v-2h6v-3l-2-1h2z"/><path fill="#7a81b9" d="m1117 532 4 6 2-4 9 1-1 2h-3v2l-5 5h2l9-1-2 1v2h2v2h-7l-2-2-5-1-1-3h-2v-2h-2z"/><path fill="#a2b9cd" d="m998 566 7 2v2l-2 2 2 6h-3l-3 1-1 2h5l-1 5-5 1-5-6 3-5h4l-1-3z"/><path fill="#afb6cd" d="M1204 500c7 1 7 1 8 4l1 2 1 3 1 3h2l1 2 2 1-5 3v1l-7-1-1-8h-2v-4h2l1-2h-5z"/><path fill="#a1b3c8" d="M1143 608q4 3 3 8 1 3-2 5h-7l-3-4q0-4 2-8z"/><path fill="#8dacc9" d="m903 566 7 4v3l3 1 1 20q-6 3-12 2h-7v-1h13l1-5 1-2h-2l1-4 1-4-3-4v-6h-2z"/><path fill="#3e318d" d="M1120 452h2l1 6 2-2 5-1 4 3-2 1v3l-2 1v3l-8 1-4-6z"/><path fill="#7f88b0" d="M1198 504h10l-1 3-2-1v4l3-1v9l-10 1v-6h5v-2h-5z"/><path fill="#5568ad" d="m1125 446 12 2v2h11l1-2v5l-16-1 1-2h-2v2h-2v2h-3v-2h-7l-1 6h-1l1-10q2-2 6-2"/><path fill="#939fb8" d="m1178 610 7 6-2 1-1 3h-3l-1 2-4 3-3 7q-4 1-6-2l-2-2-2-2-2-2 2-1 3 1h8q5-3 6-10z"/><path fill="#7aa5d1" d="M1023 595h1v5l-4 1 1 3q2 5-1 9h2q3 4 2 9l-1 2v2h6v1h-7v-4l-3-1v-2l-1-6-1-3-2-1-1-2 1-5h2l3-4 1-2h2z"/><path fill="#747caf" d="M1122 578h5l-1 5 7-3 2 2q-3 4-8 5l3 1-3 3v-3h-2v-3h-2l1 3v5l4-1-1 9-5-2v-21"/><path fill="#93a3bd" d="M1055 559h2l1 7-2 1 2 2-1 5h-5l-2-9-1 1v2h-5l2-5h-2v-2h3z"/><path fill="#aeb6ce" d="m1089 502 7 3v11l-1-3-9 1v-2l-7 1-1-6h2l1-2 2 4 5-2z"/><path fill="#b2c7d2" d="M1242 629v9l-4 2-3 1-4 1-1-3-2-1 1-5 3 1v-2l1-2z"/><path fill="#504fa0" d="m1109 540 2 1v1h2l1 7 6-1-1 2 2 6h-3l-1 4-8-1 4-5v3l2-1-1-2h2l-1-3q-5-2-8 1v-3l-1-7z"/><path fill="#8caccd" d="m898 513 6 2 1-2v3h-4v2l2-1 4 1q2 5 1 9h-2l-2 3-7 2-2-2 1-3 4 2v-2q-2-5 0-11h-2z"/><path fill="#b3cbd1" d="M1277 628h5v2l8-1v12h-4l-5 1v-2l-3-7h3v-4z"/><path fill="#8da7ba" d="M1271 522h3v3l5 1v3h5v6h-2l-1-3-1 3h-2v-2l-2 1-4 3-3-1 1-9z"/><path fill="#9db7cc" d="m895 599 14 1-1 4 2 4h-15z"/><path fill="#a8b8c7" d="M1239 511c-8 11-8 11-12 12q-7-1-13-5l1-2h4v2h6v-2q6-7 14-5"/><path fill="#6c79b3" d="m1144 565-1 2 1 5-1 2-5 1-2 1h-8v-2l-4-1 1-2 7 2 1-3h2v-2l-3-1q5-3 12-2"/><path fill="#9ebacf" d="m858 501 3 1-2 1v5l-4-1 1 3-6 1-1 3-2-1v-3l-4-1c9-10 9-10 15-8"/><path fill="#6395cd" d="m1025 594 1 7-1 10h4l-1 7h-2v8h-3v-7l-1-6h-2l1-3-1-9 4-1v-2z"/><path fill="#433f94" d="M1142 501h4l-1 7h-3v2l-2 1-1 5-7-2v-3h2v-5h2v-3l4-1 1 1z"/><path fill="#5674b5" d="m821 583 1 3-1 1-1 7 10 1v-10h3v11h-10l-8-1q-3-5-1-10 3-4 7-2"/><path fill="#b1beca" d="M1217 559h10v4h2l9-1-1 3h-2v2l-6 1v2l-4 2q-2-3-2-7l-3-1 1-2z"/><path fill="#8ea2ba" d="m1221 623 1 8-1-2h-9v4h-6v-2h-4v-3h6l1-4z"/><path fill="#9194b3" d="M1248 555h8l-2 1v7l-6-2-8 1-10 1h-3v-4h15l2-1q2 1 4-3"/><path fill="#4c3c9c" d="m1132 464 2 1v2l7 1v-2l6-1-4 6q-9 3-16 0l-5-3 3-3 7 1z"/><path fill="#a5b9c9" d="M1237 627h5l1 3h5l1-1h5l-10 8h-3l1-8-9 1v5l-4-2-1 2v-2l-3-1h3v-4z"/><path fill="#8e9cb8" d="M1236 615h2l1 7 4-3 3 4h-2v2l5-2 2 2-1 3h-11l-3-1v-3l-4 1 1-5h3z"/><path fill="#9aa399" d="m1037 614 4 2 2 2q3 1 3 5l1 3v3h-2l-3 1-1 2v-3l-5-1 1-2z"/><path fill="#4273b6" d="M860 511h5v3h-4l1 2 6 1 3 1h2v1h-3l-18 3 1-10z"/><path fill="#7e90b6" d="M1150 586h2q1 6-3 7l-2 1-2 4-4-1-1-2-2 3h-7l1-6h3l1-5 5 1 2 4 1 2 4-2v-4h2z"/><path fill="#9ba494" d="m1097 614 1 4-6-2v6h3l1 4-7 4-6-2 1-4 3-1v-2q-1-3 3-5 3-2 7-2"/><path fill="#87a7c3" d="m894 529 4 3v11l2 1h-2l1 3v5l-1 3-1 5-3-10-1-16z"/><path fill="#8c8fc1" d="M1096 506c7 4 7 4 8 7l-1 7h-2l-2-3-1 1h-9v-3h2l4-3z"/><path fill="#a2b8c8" d="m1285 589 1 4h4v11h-19v-1h4l3-1 4-1 1-3-2-1 5-1-7-2v-1h5z"/><path fill="#b5c4d1" d="m1083 566 1 2h2v2h3l-1 3 5-1 1 3h3v2l-12 1h-8l3-4q4-4 3-8"/><path fill="#a6a9d1" d="M1176 559h2v4h2v2h3v2l4 1-4 1v4h-2v2h2l-1 3h-4l1-5h-2v-2l-2-1z"/><path fill="#888db6" d="M1244 617h2v4h14c-2 6-2 6-5 8l-4 1-3 1-5-2 4-1h3l-1-4-5 1v-4l-1-3z"/><path fill="#6969b1" d="M1174 559h2l-1 8h-6v3l-2 1 2 2v4h-2l-1 2-3-1 1-2q0-5-3-10h2l8-3 1-2h2z"/><path fill="#6b6aaf" d="M1143 547q3 2 2 5h2l1-2v4h2v2h4l1-2v7l-2 5h-2v-2h-6v-1l7-2-8-1-1-5 3-1-3-1z"/><path fill="#4589c6" d="M810 639h23v4h-23z"/><path fill="#5892ca" d="M895 639h23v4h-23z"/><path fill="#788cb6" d="m1160 588 3 1-1 4 4 1v2h-2l-1 2-3 4-6-1 1-8-2-1 6-1z"/><path fill="#857fb9" d="m1184 501 2 1 1 9v2q0 8-3 14h-3l1-2 2-7v-3l-2-7h-2v-5z"/><path fill="#b4c0d1" d="m1185 621 7 2v-2l7 1 4 1 3 1 1 3h-2l-16 1-2 2z"/><path fill="#7b93b0" d="M1122 611h2l3 9 1 3-2 5 2 1v3h-6z"/><path fill="#5a5fa3" d="M1167 543v2l2 1h-2l-1 4 3 1v6l-5-1-2-4v3h-2l-2 5-3-1 1-5h3l2-5q1-6 6-6"/><path fill="#313386" d="m1115 526 3 4-2 8h-2l3 11h-3l-1-7h-2l-1 3-1-2 1-3v-7h3v-6z"/><path fill="#9fa3ca" d="m1122 558 3 1v2h2l1 2 2-3v4h2l-1 8-7-1-2-4-1-3z"/><path fill="#534ea0" d="m1114 566 4 2 1 2q3 5 8 7-5 3-10 2l-4-1h-2l4-5h-2v-6z"/><path fill="#6c8dbc" d="M823 520q6 7 5 16v3l-2 8v6h3v4l3-1 1 2-8 1q-2-4-1-9v-7h2v-4l-1-8q1-3-2-7z"/><path fill="#8792c1" d="M1110 520h2q4 4 3 7h-2v5h-8l-1 2v-2l-2-1 4-2 1 2h3l-1-5-6 1 1-4h2z"/><path fill="#8ba1b9" d="m1069 497 4 1 6 1v3l-8 1h-3q-4 1-7-2l-1-3q5-2 9-1"/><path fill="#4b68b4" d="m892 504 1 2h2l1 5h-2v4l1 3 1 6-5-3v-2h-2q-2-3-2-7l1-2h2l1 1z"/><path fill="#483f9c" d="M1149 450h1v12l-1-2-9 1 1-4-3-2v-2l9-1 2 1z"/><path fill="#2f5a8c" d="M1111 605h11v2h-6v4h4v4h-9z"/><path fill="#7d9fc2" d="m865 511 10 1v3l1 5h-3v-2h-4q-4 1-8-2v-2h4z"/><path fill="#96acc7" d="M980 608h10v2l3-2h8v4h-21z"/><path fill="#a4bac6" d="M1246 526h2l-1 9-7 3-2-3-2-2-1-4h11z"/><path fill="#738bac" d="M1030 505h1v9h4l-1 4h-3l1 2v10l-1 3q1 3-2 5v-32z"/><path fill="#b0bfd3" d="M1284 609v3l-3 1v2l5-1v2h4v4l-3-1q-6 0-11 4l-4-1 2-1 2-1 1-6q3-4 7-5"/><path fill="#446d92" d="m1241 507 4 1 1 2-3 4-1-2-2 3q-4 6-11 9h-2v-2l2-1q6-3 8-8l1-2z"/><path fill="#7b99c1" d="M878 498h6v9l-1 5-4 1-1-3h2l-2-3z"/><path fill="#9db7c8" d="M998 621h6v12h-5v-9l-4-1v3h-2l-1-3-2 2-1-3z"/><path fill="#7a99af" d="M1287 526h2v3l7 1v-2h4l-3 7h-4v-2h-2v2h-5z"/><path fill="#9ba0c7" d="m1136 535 1 7-5 1-2 1h-7l2-4 3-1v-2q3-2 8-2"/><path fill="#89a5c4" d="m827 599 6 1v9l-5 2-4-2z"/><path fill="#284da5" d="M833 573v7l-5 5-3-2 1-2-5 1 1-3 4-1v-2q4-4 7-3"/><path fill="#93aebb" d="M1036 569h14v2h-3v6l-8-1-1-5h-2z"/><path fill="#2f64af" d="M842 512h2v9l-8 1-1-4q3-7 7-6"/><path fill="#5a78b8" d="m884 499 9 2 1 4h2l1 5-2-4h-3v10l-2-6-4 4v-9h5v-3h-7z"/><path fill="#9ab2c8" d="M1148 602h11q-2 4-5 7h2l-1 7q-4-3-5-9l-1-3z"/><path fill="#798777" d="M1111 605v5h-3l-9 2-4-1c3-8 8-7 16-6"/><path fill="#6a6bb3" d="m1283 605 4 1 1 2 2-1v9l-2-1-8 1 4-6-3-1z"/><path fill="#94acc5" d="M1001 551h4v13l-8-3v-2h3l-3-4 1-2 3 1z"/><path fill="#a0b1b9" d="m1062 502 13 1 1 3-4 4-1-1-5-3-2 4-3-2z"/><path fill="#bcccda" d="M1181 629v3l6 1 1 5-2 2-2-1-2 2-3-2 1-7h-4v-2z"/><path fill="#668fb8" d="M1030 605h1v32c-6-2-6-2-9-5v-2h7z"/><path fill="#7a92b4" d="M980 621h4l3 1h2l1 2 4-2-1 4h2v-3l5-1 1 5-2-1h-2l-1 1h-12l-3-1z"/><path fill="#60759b" d="m1246 613 3 3 5 1-2 1-1 3-3 1-2-1v-4l-1 2-4 1-2 4q-2-4 0-9h2q3 1 5-2"/><path fill="#5853a0" d="M1145 527v3l-2 1h-2l-3 1-4 3h-4l-7 1-1-5 7-1v1q6 1 10-3z"/><path fill="#57569e" d="m1273 614 4 2-1 5-7 1v2h3v2h-5v-10l5 2z"/><path fill="#bdc8db" d="M1134 440h3q4 0 8 3v1h-22c6-5 6-5 11-4"/><path fill="#adbace" d="M1146 626v9l-2 1v-4h-3v-3h-5l1 7-5-1-1-6h2l3-1h2l5-2z"/><path fill="#81a3ab" d="M1256 520q6 7 8 15h-5l-1-3h-3l1 4-2-1 2-9 1-4z"/><path fill="#7191c0" d="m903 567 2 1v2h2l1 3 2 6v6l-2 3-2-1 1-3-1-3h-2v-7z"/><path fill="#b2c4d2" d="M1128 602h8l-1 1q-5 6-7 11l-4-3v-6h2z"/><path fill="#2b4ea2" d="m820 587 11 2-1 6-10-1z"/><path fill="#2d61ad" d="m829 537 2 4h1v-3l5-1-4 18-2-1q-2-8-2-17"/><path fill="#b1c0d0" d="m1081 515 5 1v3l1 3 2 1 1 7-2-1-2-2-2-2-4-2 2-5h-2z"/><path fill="#bcd0d5" d="M1267 500h8l2 8-3 1-2-1-3 1q-2-4-2-9"/><path fill="#164577" d="m1172 603 4 3-1 6-2-2q-2-2-5-2-4 0-7 3l1-7q5-2 10-1"/><path fill="#a3c0d5" d="M1013 593h2v5l-1 1v6l-1 16-4-6v-5l2-6 1-5z"/><path fill="#7e9fc2" d="M813 586c2 2 2 2 2 9l15 1v1h-20v-9z"/><path fill="#6582a1" d="m1244 605 2 1 1 4 2 1v2l3-1 1 2h-7l-5 5-2-6 3-4 1-2z"/><path fill="#a4bcd0" d="M895 596h13l-1 3h2l4 3-2 1-1 4-4-4h2v-2l-13-2z"/><path fill="#aec3cc" d="m1229 500 10 4v2q-5 3-11 2l-1-3q0-3 2-5"/><path fill="#a3b1c6" d="m1170 608 3 6-2 3h-8v-6l5-3z"/><path fill="#a5bdcf" d="M995 576h2v2l2 1-1 2h5l-1 5-5 1-5-6z"/><path fill="#99a0c7" d="m810 528 3 1v8l-1 5 2 6-2 2 1 3-3 2z"/><path fill="#899eb7" d="m1225 500 4 1-1 1v5q7 1 13-2-3 4-8 5l-6-1-3-4-3-1-1-1-2 1h-2l-2-2 4-1h3l4 1z"/><path fill="#6076af" d="m898 581 2 1 5-1v5l-2 1 2 3-9 2z"/><path fill="#b5c5d3" d="M1206 624h3l-1 4h-6l-1 2-4 3h-3v-2l2-1h-8l1-3 7-1h2l9 1z"/><path fill="#315a8f" d="M1146 604v8l-1-1-4-2-8 1 1-5q6-2 12-1"/><path fill="#b4c6d5" d="M1169 591q3 4 3 8l-1 2-7 1-3 1 3-7h2l1-2z"/><path fill="#9297c6" d="M1175 561h1v7l1 5h2l-1 5h-5l-1-2h4-2l-4-3v-3l2-2q3-3 3-7"/><path fill="#aebdcf" d="M1079 559h7v3l3 2-3 1-3 7-1-4h-4z"/><path fill="#819fc4" d="M824 525q3 5 2 11v7h-2v6l-3 1v-7l1-3 2-10z"/><path fill="#6265ac" d="M1176 505v8l4 1v6l-3-4-2 1-4-1v-7q1-3 5-4"/><path fill="#adc3cc" d="m1280 579 4 2v12l-7 1v-7l4 1v-2l-2-1z"/><path fill="#8391a8" d="m1273 591 4 1v2h6l5 2-12 1h-9v-3l7-1z"/><path fill="#9aa4c2" d="M1111 570h2v3h2l-4 5h-12q3-4 8-5l2-1 2-1z"/><path fill="#5781ba" d="M1029 559h2v19h-5v-6l2-2 1-6v-5"/><path fill="#bdd3d8" d="m1282 516 3 6v2l-1 4-5 1v-3h-6l6-4 2 1z"/><path fill="#9695c3" d="m1208 566 1 2h-3l1 3-1 3 2 1h-9v-6h3v-2z"/><path fill="#aabcce" d="M1173 628h2l1 3 4 1-1 7-8-4q0-4 2-7"/><path fill="#b4cad7" d="M990 628h9v5h5v4l-7-1v-3h-3v-3z"/><path fill="#aec2cd" d="m1240 506 2 1-4 4h-2q-5 1-9 5h-2l1 3-2 1-1-4 3-2-5-1q4-4 8-3l9-3z"/><path fill="#8492b3" d="M1289 620v4l-3 1-2-1-1 2-7-3q5-7 13-3"/><path fill="#97a5c5" d="m1153 586 3 1 1 5-2 1v2h-8l-1 2 1-4h2l1-4 1 1z"/><path fill="#b2c6cf" d="m1267 584 1 4 7-1 1 5-1 1v1h-8z"/><path fill="#acaccd" d="m1200 560 4 1-1 4-2 1 1 3h-3l-1 3h-8l1-4 3-1 1 2 5-6-1-1z"/><path fill="#4b529a" d="m1109 540 2 1v1h2l1 7-7 3v-3l-1-7z"/><path fill="#787ea8" d="M1280 555h2v3l2 1 1-3h2v2h3v4l-10 1v-2h-3z"/><path fill="#abc3da" d="M1027 507v7l-2 3-7 1q0-3 2-5l3-2 2-2z"/><path fill="#3152a4" d="M896 565h5v12h2v2h-4q-4-5-3-12z"/><path fill="#b5bad1" d="M1198 559h12l-2 5v3h-7v-3h2v-3h-6z"/><path fill="#9cb3c0" d="m1271 527 4 3 3-3-2 8-4 2-3-1z"/><path fill="#aeb8d5" d="m1163 515 1 4-2 2h-2l2 11h-2v-3l-3 1v-3l-3-1 3-4 2-3z"/><path fill="#5f81a2" d="m1235 616 2 1-1 3-3 1-1 4 5-2-1 4-6 2-2-1c1-8 1-8 5-11z"/><path fill="#8f93c5" d="M1142 558h2v2l2-1q4 0 7 2-6 5-14 5l-1-3h3z"/><path fill="#5b8ec9" d="M1024 611h5l-1 7h-2v8h-3v-8z"/><path fill="#83a2c5" d="m909 585 4 3v7l-11 1h-7v-1h13l1-5 1-2h-2z"/><path fill="#85a2bc" d="M1001 543h3l1 5-9 1v-5z"/><path fill="#6168a8" d="m1108 534 3 1 1 3q-2 4-7 4h-3v-4h3l1-3z"/><path fill="#5b80bb" d="M839 523h-2l1 6-3-1-1-3h-2l-2 11h-3v-3l-1-7h4l1-3z"/><path fill="#7ea0c8" d="M840 511h5q3 4 2 7l-3 11-1-2h-3l2-6h2v-9z"/><path fill="#9397c3" d="m1091 503 5 2v11l-1-3-8 1v-2h4z"/><path fill="#8e90c3" d="M1130 506h3l-4 10-1-2-2-1-4 1 1-5 4-1 1 1z"/><path fill="#a7bcc8" d="m1254 629-10 8h-3l1-6z"/><path fill="#839493" d="m1094 626 3 3q-4 4-9 3l-2 1-5-1v-3h2l10-1z"/><path fill="#728caf" d="M1142 599v3l2 2h-2l-8 3-3 5-1-4q3-4 7-6l-6-1v-1z"/><path fill="#a0bbd0" d="m910 571 4 2 1 5 1 2-1 4v6l1 3v2l-7 1 4-2-1-20-2-1z"/><path fill="#8889bf" d="m1177 515 2 5h-2l-1 3-2 6-2-1 1-11z"/><path fill="#7d8cb3" d="m1178 610 7 6-2 1-1 3h-3l-3 3-2-1 1-1q4-5 3-11"/><path fill="#8487ba" d="m1122 534 10 1-1 2h-3v2l-6 5z"/><path fill="#7277b7" d="M1141 556v2l-3 1-6 4-1-2 1-2-4 1v-2q7-5 13-2"/><path fill="#99a8ba" d="M1248 555h8l-2 1v7l-5-1-2-5z"/><path fill="#84a0c9" d="m898 513 6 2 1-2v3h-4v2l2-1h2q3 2 2 5h-4l-4 1 1-7h-2z"/><path fill="#5a5aa2" d="M1134 508h8v2l-2 1-1 5-7-2v-3h2z"/><path fill="#819399" d="m1048 625 2 5 3 1q-3 3-7 3h-2v-2h-2v-2l2-1z"/><path fill="#7e97af" d="M1236 615h2l1 13-3-1v-3l-4 1 1-5h3z"/><path fill="#808874" d="M1106 615h1v7l3-3 2 1 1 6-2-1-9-3v-2h-2v-2h5z"/><path fill="#a6c2c4" d="m1263 544 5 1 2 6v2l-1 1 3 2-7 1 1-2-1-7-1-2z"/><path fill="#7b7bb6" d="M1150 534h3c2 6 2 6 1 10l-7-1z"/><path fill="#3e578f" d="M1131 619h3v2q7 1 12-2v5q-5 3-10 1l-5-5z"/><path fill="#b8cdd5" d="m1241 515 2 1-1 2h2v4l-2 1-1 3-2-4 1-2h-2l-1 4h-2q0-5 4-7z"/><path fill="#416a9a" d="M1122 611h2q3 6 2 11l-4 3z"/><path fill="#989dc8" d="m1161 528 7 1q-1 4-5 6l-3 1-3-5 1-2h2v3h2z"/><path fill="#737bb4" d="m1096 526 3 1-1 3q0 4 2 8l-4-1v-2l-3-2v-5z"/><path fill="#7772b6" d="M1138 518h8v9l-4-1-1-5h-3z"/><path fill="#95aaae" d="m1046 514 9 1-1 4-6 2v-3h-2z"/><path fill="#1b4ea0" d="M826 513h6v8l-3 2z"/><path fill="#514ba5" d="M1147 465q-1 4-5 6l-9 1v-2h4l-1-3 5 1v-2z"/><path fill="#6377a8" d="m1123 588 2 1-1 4 4-1-1 9-5-2 1-9z"/><path fill="#4d4a9d" d="m1115 526 3 4-2 8-2-4-2 4-2-5h3v-6z"/><path fill="#97b3cb" d="M847 517h4v6l-5 4h-2z"/><path fill="#317cc6" d="M999 638h5v3h-17q5-4 12-3"/><path fill="#adc0ce" d="M1091 631h3l-3 7-4-3-1 2v-2h-2l-1 2v-4l-2-1h3z"/><path fill="#858b6f" d="m1095 617 1 2 4-1v2l2 1-1 5-4 1z"/><path fill="#6a8bbc" d="M816 583h2l-1 6 2 1 1 6-5-1v-11z"/><path fill="#6187b7" d="M832 568h1v5q-3 3-7 3v2l-3 1 1-6 2-1 2-2 1-1v2h2z"/><path fill="#365ba3" d="M858 513h2l-1 2h-2v3h16v1h-7l-3 1-9 1v-7z"/><path fill="#6e8fc3" d="M826 500h6v11h-2l-1-2-3-3 2-4h-2z"/><path fill="#92a6c6" d="M1119 449h10l-1 4-8-1-1 6h-1z"/><path fill="#88a8c4" d="m895 599 14 1-1 3-13-1z"/><path fill="#939ac6" d="M1109 523h2l2 9h-8l-1 2v-2l-2-1 4-2 1 2h3l-1-3z"/><path fill="#6e69b2" d="m1180 513 1 11-3 4h-3l2-8h3l-1-3v-3z"/><path fill="#3c68ac" d="m825 514 5 8 2-1 2 1 1-2v3h-4l-1 4-4-1v-3z"/><path fill="#637ebf" d="M894 511h3l-1 3 4 2-2 7-2 1q-2-4-2-9v-4"/><path fill="#8b91c2" d="M1122 444h15l1 5-3-1-14-2z"/><path fill="#a2b3c7" d="m1183 629 10 1 1 5c-6 0-6 0-9-2v-2h-2z"/><path fill="#7d9190" d="m1073 628-1 3h-5v2l-7-1q5-6 13-4"/><path fill="#96b1c9" d="m895 616 15 1v2h-15z"/><path fill="#8a97bd" d="M1274 608h6l1 3-2 3h-2l-1 2-4-1z"/><path fill="#7780b9" d="M1140 565h4q0 7-4 7l-2 1v-4l-6-1q3-4 8-3"/><path fill="#7b96c1" d="m823 554 2 5 8-1v2l-11 2v-7z"/><path fill="#8285bf" d="m1125 514 4 2 1-2q2 3 3 7-5 2-8-1z"/><path fill="#8080b8" d="m1113 560-2 6h-3l-2-6-2-1q5-2 9 1"/><path fill="#807bb7" d="M1100 538v2l3 4-1 4h-2l1 5-2-1-1-5-1-3 1-5z"/><path fill="#aac1cb" d="m1234 521 1 3h2v5l-3 1-6-5z"/><path fill="#45568a" d="M1173 617h3l-4 8h-8v-1h6v-2l-4-1 6-1z"/><path fill="#59539e" d="M1091 526h5l-1 2h-2l1 5 3 2-1 2 4 2-4 2q-5-7-5-15"/><path fill="#aec0cb" d="m1066 506 4 1 1 2-5 1 1 2h4v3l-6 1q-1-5 1-10"/><path fill="#8fabbe" d="M980 630h11v2h-2v2l-9-1z"/><path fill="#4745a0" d="M1138 574h4v2l3-2 4 1q-5 4-11 4l-3-1v-2h3z"/><path fill="#b1c4cc" d="m1254 560 10 1v3l-5-1v2h-6z"/><path fill="#7d95ae" d="m1067 497 3 1h2l-1 2-4 1-2 2-4-2-1-3z"/><path fill="#a4b2c8" d="m1195 622 11 2 1 3h-7l-5-1z"/><path fill="#61707a" d="M1107 610h3v6l1 3-2 3h-2z"/><path fill="#809ec0" d="M833 605v4l-5 2-4-2v-3z"/><path fill="#525e86" d="M1096 564h2l1 10-4-1 1-1-3-1z"/><path fill="#7b9cc4" d="m832 564 1 4-2 3-3-1-3 5-1-3q3-5 8-8"/><path fill="#7879b8" d="M1126 502h2v4l2 1-3 3v-2l-5 2v-6l3 1z"/><path fill="#a1bcd0" d="M902 630h11v4h-2v-3h-9zm5 6 11 1v1h-11z"/><path fill="#a2b1c8" d="M1284 609v3l-3 1-1 5-4 5-4-1 2-1 2-1 1-6q3-4 7-5"/><path fill="#356493" d="m1161 605 1 8-1 2v2l-3-1v-3l-1-1v-5z"/><path fill="#7066b8" d="m1157 564 2 1 1 5 2-2v4l-8 1-1 2q0-3 2-5z"/><path fill="#6b7e99" d="M1062 564h2v9h2v2h-6v-2h2v-5h-2z"/><path fill="#89a2b6" d="m1037 561 4 1 1 4-2 2h-4v-6z"/><path fill="#7d7ebd" d="M1122 528c9 0 9 0 14 2l-1 2h-7l-1-1h-5z"/><path fill="#688cc0" d="m842 521-2 6h3l-1 4-2 1v-2h-2l-1-7z"/><path fill="#5c648e" d="m1207 512-1 4-5-1 3 4h-6v-6z"/><path fill="#8d8dc5" d="M1180 503v5l2 1-2 1-1 3h-3v-8z"/><path fill="#6e89be" d="M891 502v3h-5v8q-3-5-2-11z"/><path fill="#94a5c4" d="m1168 587 2 4-3 3h-7l2-1 1-2q1-3 5-4"/><path fill="#656aa8" d="m1143 539 3 1-1 4h-3l1 4-4 1v-2h-2l-1-4h3v2h2v-2l2-1z"/><path fill="#9197c1" d="m1138 535 2 3-1 1 4 2v2h-2v2h-2v-2h-5l3-1-1-5h2z"/><path fill="#b7cdd7" d="M1031 524h2v2l3-1v5l-5 5z"/><path fill="#b7bcd3" d="M1194 509v7l-1 2h-2l-3 2v-6l5-3z"/><path fill="#9db0c4" d="M1209 624h5l-2 5h-3l-7 2v-3h6z"/><path fill="#9baec2" d="M1146 626v9l-2 1v-4h-3v-5z"/><path fill="#708ba4" d="M1221 623h2l2 5h3v4l-6-1z"/><path fill="#98a3be" d="m1183 617 9 3v3l-9-3z"/><path fill="#86907d" d="M1104 609h3l-1 10-6-1v-2l4-1v-2h2v-2l-3-1z"/><path fill="#5253aa" d="M1282 604h8l-1 4-2 1-1-3-3-1-2 5-1-2h-2l-1 2 1-4h3z"/><path fill="#718eae" d="M1171 599h2l3 7-2-1-7-1h-5q2-3 5-4l4 1z"/><path fill="#6e71a6" d="m1113 571 4 3 5 2v2h-11l4-5h-2z"/><path fill="#5d59a7" d="m1102 544 4 2-3 1v2h3v3h-3l-1 2-2-6h2z"/><path fill="#47489b" d="M1145 527v3l-14 4q6-6 14-7"/><path fill="#7a97c4" d="M832 526h1l2 10h-5v-8z"/><path fill="#a6b7c2" d="m1081 515 5 1v6l-6 1 2-5h-2z"/><path fill="#9196c9" d="m1104 512 5 4-1 3-6 2z"/><path fill="#727aa5" d="m1269 622 7 1q-1 5-6 6l-3 1v-4h5v-2h-3z"/><path fill="#5a6199" d="m1258 623-1 5-6 2-3 1-5-2 3-1c7-1 7-1 12-5"/><path fill="#909881" d="m1092 616 4 1 1 10 3 1-5-1v-5h-3z"/><path fill="#a1a99f" d="m1037 614 6 4v5l-3 2z"/><path fill="#b3c6d0" d="M1281 596v2h2l-1 4-4 1-3-6z"/><path fill="#a9bec4" d="m1274 595 2 2-1 4-5 1v-2l-1-2-2-1h7z"/><path fill="#8da7c8" d="m810 591 1 2h2l1 2 8 1h8v1h-20z"/><path fill="#989dbc" d="M1229 567h11l-1 3h-10z"/><path fill="#8badcc" d="M1024 557h-2v2c-7 2-7 2-10 1v-3l7-1z"/><path fill="#464892" d="m1153 544-1 3h-5l-1 2-4-2v-3z"/><path fill="#6785a4" d="M1287 526h2v3h2v6h-5z"/><path fill="#4d4ea2" d="m1149 450 1 4h-8l-1 3-3-2v-2l9-1 2 1z"/><path fill="#9dafba" d="m1075 628 3 2q-8 5-16 4l-2-2 7 1v-2l8-1z"/><path fill="#9bb6cf" d="M1018 627h11v3l-8 1z"/><path fill="#acbacd" d="m1168 610 4 1 1 3-2 3h-5z"/><path fill="#637ea4" d="M1122 604h1v6h-2l-1 3v-2h-4v-4h6z"/><path fill="#9aa7c5" d="M1147 586h1v6l-4 3-3-2v-4h3z"/><path fill="#7e80b9" d="m1155 559-1 6-3 1v-2h-6v-1l7-2-3-2z"/><path fill="#939ac5" d="m1122 558 3 1v2h2l1 3-5 3-2-7z"/><path fill="#6d72ad" d="m1162 552 2 1 1 3 3 2c-7 2-7 2-9 1l1-4h2z"/><path fill="#5a80b5" d="m825 547 1 3h5l2 7h-4v-4h-3z"/><path fill="#6d93bc" d="M893 535h3l1 12-2 3z"/><path fill="#a3a7cc" d="m1136 535 1 6h-2v-2l-8 1 3-4z"/><path fill="#a1bed2" d="m909 516 2 1c1 10 1 10-1 13l-4 3 2-7v-9z"/><path fill="#49439d" d="M1142 501h4l-1 7h-2l-1-2-3-1-1-3 3 1z"/><path fill="#7399cd" d="m1024 617-1 9h6v1h-7v-4l-3-1q2-6 5-5"/><path fill="#7991ac" d="m1250 611 6 1 1 2-2 3h-7l-1-3 4-1z"/><path fill="#8aa6c4" d="M895 605h10v3h-10z"/><path fill="#405fb0" d="M832 580h1v5l-2 1-1 3-1-1h-5l1-3 5-2z"/><path fill="#7b82b6" d="m1151 581 2 1h6l-1 5-1-2h-4l-1 2-2-1v2h-2v-3h3z"/><path fill="#0a3e92" d="M833 573v4q-3 3-8 3l1-4q4-4 7-3"/><path fill="#b1c5cf" d="M1281 562h9l-1 4-8-1z"/><path fill="#9c95c6" d="M1180 515h2v6h2l-3 6 2 1-4 2v-5l1-1v-9"/><path fill="#6d90c0" d="m865 511 8 1v2h-5l-3 1h-2l-1 2-1-3h4z"/><path fill="#4087c7" d="M895 639h9l1 3h-10z"/><path fill="#6c96b2" d="M822 631h8l-1 4h-6z"/><path fill="#9eb1c7" d="m1134 589 1 3h-3l-1 6 3 1-4 1h-2v-2h2l-1-4h2l-1-4 4 1z"/><path fill="#6064af" d="M1117 567h3l1 3-1 2 4-1v2l4 1-1 2-8-3v-2l-2-1z"/><path fill="#8285ba" d="m1152 549 2 2-1 5h-3v-2h-2v-4z"/><path fill="#acb5d3" d="m1167 521 3 1-1 2h-2l1 5h-4l-1 2-1-3 1-1z"/><path fill="#a5adc3" d="M1203 511v2h-5l-2 4-3-1q2-6 10-5"/><path fill="#849dba" d="m980 621 8 1v3l-6 2z"/><path fill="#7d9eb0" d="M1249 605h8l-2 4-3 1v-2l-3 1z"/><path fill="#7c91b8" d="M1147 595h5v2l-3 1 4 2v2h-5z"/><path fill="#b0bdd1" d="m1186 572 4 2 1 4h-7z"/><path fill="#84a9d6" d="m1022 567 1 4h2l1 7h-3v-2h-3v-2l2-1z"/><path fill="#6e82a0" d="M1071 564h1v9h2v2h-6l1-3h2v-4h-2z"/><path fill="#a0bacf" d="m900 554 3 1v11l-3-3z"/><path fill="#547bb8" d="m839 535-1 2-6 1 2 5-4-2v-5c7-2 7-2 9-1"/><path fill="#a5b0d0" d="M1105 518h5l-1 5-4 1-2-1z"/><path fill="#5558a1" d="m1097 507 7 4-1 3-6-2z"/><path fill="#85a0c4" d="m878 498 4 1v5l-4 2z"/><path fill="#2f76c2" d="M825 639h8v3h-10z"/><path fill="#8da3b9" d="M1129 609h1v13l-3-1q0-7 2-12"/><path fill="#6a69b2" d="m1149 577-1 4-3-1-1 3-3-3v-2c5-2 5-2 8-1"/><path fill="#747eb7" d="M1124 571h2l3 1 5 1-1 3h-5v-2l-4-1z"/><path fill="#9da8c0" d="m1250 567-1 5-1-2h-7v-2z"/><path fill="#7275b0" d="M1143 547q3 2 2 5h2l1-2v4h2l-1 4-1-1-5-4z"/><path fill="#9399c5" d="m1098 516 3 2-1 3h-2l-2 2-2 2h-2l1-3h2l1-4h2z"/><path fill="#4c3c99" d="M1138 462h7l-1 3h-3v3l-4-1z"/><path fill="#6f7eb2" d="M1148 448h1v5l-16-1 2-3 2 1h11z"/><path fill="#7083ae" d="m1289 620-6 2-3-1v2l-4-1q6-6 13-2"/><path fill="#b4c7d6" d="M1148 602h11l-1 3h-4l-3-1h-2z"/><path fill="#6493ca" d="M1027 564h2q1 5-2 9l-2 2v-4h-2v-2h4z"/><path fill="#7d83bc" d="m1124 556-2 3 1 5-4-1-1-7z"/><path fill="#746cb1" d="m1107 553-1 5-4-1-1-4z"/><path fill="#6081a1" d="M1246 526h2l-1 9h-5l1-5 1 3z"/><path fill="#405985" d="m1235 516 1 4c-6 4-6 4-9 4v-2l5-3z"/><path fill="#074198" d="M836 517h5l1 3h-3v2l-4-1z"/><path fill="#b4bdce" d="M1209 513h7l-1 2h-3v2l3 1v1h-5z"/><path fill="#a7bfcb" d="m1235 512 2 1-3 5-5-1v-2z"/><path fill="#99afbf" d="M1277 628h5v2l8-1-1 5-1-3h-6l-1 4v-6z"/><path fill="#779fb9" d="M901 631h8l-1 4h-4v-2h-3z"/><path fill="#828bae" d="m1146 624-1 3-11 1q2-3 7-4z"/><path fill="#4d7aa3" d="M1134 608q4 5 1 10h-3v-7z"/><path fill="#97afbd" d="m1285 589 1 4h4l-1 4-2-1-8-2v-1h5z"/><path fill="#7594b4" d="M997 582h5l1 2-2 3h-4z"/><path fill="#4368ad" d="m901 565 2 1v7l-3 2v-8z"/><path fill="#7d97af" d="m1044 561 5 1v6h-5l2-5h-2z"/><path fill="#8993ae" d="m1272 557-2 4h-5v-4z"/><path fill="#7373b7" d="m1158 537 3 1-2 2 1 5-3 2-1-9z"/><path fill="#3e5fb2" d="M892 512h2v4l2 8-3-3-2-2-1-3h2z"/><path fill="#b8c9d4" d="M1218 499h8l-1 3h-7l-4-2z"/><path fill="#aac5ca" d="m1287 631 3 1v9h-2q-2-4-1-10"/><path fill="#becfdc" d="M1076 630h4l-1 4h-2l-2 5q-2-4 1-9"/><path fill="#254c84" d="M1120 611v4l-7 1-1-3z"/><path fill="#a9bdcd" d="m1170 594 2 5-1 2h-6l2-1 1-2v-3z"/><path fill="#8fa0be" d="m1136 590 2 2-2 2-1 3-4 1 1-6z"/><path fill="#4c6ab2" d="M830 585h3v10h-3z"/><path fill="#5f5fa5" d="m1127 578 8 1c-6 4-6 4-9 4z"/><path fill="#8787bb" d="m1188 571 5 4h3v3h-5q-3-3-3-7"/><path fill="#697d9e" d="M1091 567v6l-5 1v-3l2 1 1-2h-3v-2z"/><path fill="#9ca3bc" d="M1227 559h8l-4 4h-4z"/><path fill="#7297af" d="M1235 529h6l-1 6-3-1z"/><path fill="#6483be" d="m899 507 4 1 1 7-3-1z"/><path fill="#5a57a9" d="M1181 502h3v6l-2 1-2-1v-5z"/><path fill="#7984c0" d="M1139 445h8l1 2h-4v2h-5z"/><path fill="#adbfcc" d="m980 624 2 4h7l-1 2h-8z"/><path fill="#6d86a2" d="m1230 623 2 1 5-1-1 4-6 2-2-1 1-2z"/><path fill="#7185a8" d="m1130 617 2 3 4 5-5 1q-2-3-2-7z"/><path fill="#5f7da1" d="M1238 615h3v4l2 1h-2l-2 4z"/><path fill="#b0bec4" d="m1035 612 2 1v10l-1-2h-2z"/><path fill="#7492ad" d="M1245 612q0 4-4 7l-2-6z"/><path fill="#787fb3" d="m1285 608 2 6-5 2-2-1 2-2z"/><path fill="#a8c2c9" d="m1259 609 2 5 4 1-9 1z"/><path fill="#7e96aa" d="m1040 572 1 3h3l1-3q3 2 2 5l-8-1z"/><path fill="#8182be" d="m1141 556 4 2h-3l-1 4h-5l1-3 4-1z"/><path fill="#6365a8" d="M1169 553v4l-5-1-1-3z"/><path fill="#3f4691" d="M1111 542h2l1 7-5 2 1-4h1z"/><path fill="#3b66b0" d="m837 537-2 8-3-2v-5z"/><path fill="#acc5cb" d="m1254 531-2 9-2-1v-7z"/><path fill="#597197" d="m1271 527 4 3 3-3-1 6-5-1z"/><path fill="#7a9ec3" d="m894 529 4 3-1 5-1-2h-3z"/><path fill="#6e6fb6" d="M1097 513h5l1 4v3h-2l-2-5h-2z"/><path fill="#c2d6e2" d="M1236 629h6v5l-1-2-2 1h-2l-2-2z"/><path fill="#a6b6bc" d="M1097 628h6l-1 4 3 1-2 1-2-1v-3l-6 1z"/><path fill="#7a7c89" d="m1110 619 2 1 1 6-7-3 1-3v2z"/><path fill="#4a63a1" d="m895 581 3 1v7l-3 1z"/><path fill="#a2c3c1" d="m1280 579 4 2-1 8-4-4z"/><path fill="#95a0bc" d="m1286 556 1 2h3v4h-9l1-2h4z"/><path fill="#5c5e9f" d="m1149 546 3 2-2 2h-3v2h-2l-1-5h3z"/><path fill="#5c5cae" d="m1153 536 4 3v7h-2v-3z"/><path fill="#7c84b6" d="M1143 536h3l-3 6-5-3v-1l5-1z"/><path fill="#6e8b9a" d="m1261 529 2 1 1 5h-5z"/><path fill="#aec6cb" d="M1247 515q3 3 3 7v2l2 1-5-1z"/><path fill="#3e65ac" d="m828 506 2 1v4h2v2h-5z"/><path fill="#6c8fba" d="M824 507h2l-2 12h-1v-8z"/><path fill="#2e2f72" d="M1120 452h2l1 6h-2l-2 1-1 2z"/><path fill="#baceda" d="m1034 629 6 1-1 3h-5z"/><path fill="#798aac" d="M1244 617h2v4l3 1-3 3h-2v-4l-1-3z"/><path fill="#6c81a6" d="m1171 608 3 3v6l-3 3 1-3z"/><path fill="#6c9ed0" d="M1025 594q1 5-1 9l-2 1-2-1v-2l4-1v-2z"/><path fill="#5d6da9" d="m1167 572 2 1v4h-2l-1 2-3-1q2-6 4-6"/><path fill="#969dc6" d="m1185 570 3 1-2 1-2 6-2-1 1-2h-2v-2l3-1z"/><path fill="#7981b8" d="M1162 568q3 4 3 9l-3 2v-11"/><path fill="#9bafbf" d="M1051 564h1v5h4v4l-4 1z"/><path fill="#959cc7" d="m1124 567 5 1 2 4-7-1z"/><path fill="#7e98ba" d="M1004 558h1v6l-8-4 7 1z"/><path fill="#5b5ca3" d="m1116 551-1 2 1 4-5-1v-4z"/><path fill="#656aa0" d="m1128 544 6 2v2h-7z"/><path fill="#515b97" d="m1134 543 4 2-1 2 2 1h-5v-2h-2v-2z"/><path fill="#7174ad" d="M1121 543h13l-3 2-3-1v2h-7z"/><path fill="#acc4c8" d="M1259 535h6l-4 1v2l3 1-2 4-3-1 1-3z"/><path fill="#9ab0c9" d="m1009 535 3 1v6l-3 1z"/><path fill="#6767af" d="M1150 534h3l-2 7 2 1h-4z"/><path fill="#86a1b5" d="M1249 529h2l-1 7h-4q1-6 3-7"/><path fill="#6f62aa" d="m1184 516 2 1-1 9-4 1 1-2z"/><path fill="#8585bf" d="M1093 513h2l1 5h-7v-3l4-1z"/><path fill="#b3c4db" d="M1144 447h4v3l-7 1-1-2h4z"/><path fill="#7590aa" d="m1183 629 6 1 1 3h-5v-2h-2z"/><path fill="#65819f" d="m1122 628 6 1v3h-6z"/><path fill="#c7d7e4" d="M1198 628h4l-2 4-6 1v-2l4-1z"/><path fill="#95abbc" d="m1237 627-7 5h-2v-4z"/><path fill="#5a799f" d="m1257 605 4 1-1 3h-4l-1 2-2-2z"/><path fill="#3d5d8f" d="m1174 607 4 1-1 7-3 1z"/><path fill="#8faec8" d="M902 600h7l-1 3h-7z"/><path fill="#99b8b8" d="m1272 590 2 1 1 3h-8v-3l5 1z"/><path fill="#8b98bf" d="M1150 586h2l-1 5-6 4 1-3h2v-4h2z"/><path fill="#a2adca" d="m1153 586 3 1q0 3-4 5h-3l1-3 1 1z"/><path fill="#96a1c4" d="m1162 580 1 2h3v-2h2l-1 7-3-2v-2h-2z"/><path fill="#5d80a1" d="m998 566 5 1 1 2h-3v2h-4z"/><path fill="#b3c6d1" d="M1273 560h2v2h4l1 3-3 1-5-5z"/><path fill="#b8cbd6" d="m1076 559 4 1-1 4-4-1z"/><path fill="#9ea4c9" d="m1136 550 1 4h-3v-2l-2 1h-3l-2-2z"/><path fill="#8d93c1" d="m1100 537 4 1h-2v4h4v3l-7-4h2z"/><path fill="#444196" d="m1114 538 1 2h2l2 6h-3z"/><path fill="#9291c1" d="m1126 539 4 2-3 3h-4z"/><path fill="#959cc5" d="m1168 525 5 2-2 4h-2z"/><path fill="#7e9eb3" d="m1239 511-4 2-2 1-4 1 1-4z"/><path fill="#8fafcb" d="m903 509 4 3-1 6h-5v-2h4z"/><path fill="#a5afce" d="m1171 508 1 3-3 5-2-1 2-6z"/><path fill="#9bb1bc" d="m1088 631 4 1-1 2h-8l-2-2h3z"/><path fill="#949dbd" d="M1260 621v2l-3 1-2-1v2l-4-2q4-2 9-2"/><path fill="#6363aa" d="m1273 614 4 2-1 4-4-2z"/><path fill="#2e5680" d="M1111 605h2v10h-2z"/><path fill="#5189c6" d="M1025 597h2v7h-3z"/><path fill="#879cbc" d="M1142 599h4v5l-5-1z"/><path fill="#94a2c0" d="M1123 585h2v3h2v5h-3z"/><path fill="#7973b4" d="m1205 571 1 3 2 1h-9z"/><path fill="#5453a7" d="m1159 572-2 5h-4l1-4z"/><path fill="#7276b2" d="M1102 538h2l1 2 2-2h2v3l-7 1z"/><path fill="#a0a4cf" d="m1161 528 2 1v4l-5 1-1-4 3-1v3h2z"/><path fill="#84a3c9" d="m895 527 5 2 2-2v4l-5 1-2-2z"/><path fill="#7f8eac" d="M1214 516h5v2h3v2l-7-1z"/><path fill="#b4c9d2" d="m1037 517-1 4h-5v-3z"/><path fill="#6589bc" d="m853 513 2 6-1 2-2 1v-8z"/><path fill="#5070b4" d="m861 514 1 2 3 2h-8v-3z"/><path fill="#6a6db0" d="M1145 506h1v8h-2v-2l-2-1 1-3h2z"/><path fill="#a1b6c7" d="m980 633 8 1-8 3z"/><path fill="#6c91a6" d="M981 631h7v3h-5z"/><path fill="#61629f" d="m1267 618 2 6h3v2h-5z"/><path fill="#42678d" d="M1246 605h3v6l-3-1-1-4z"/><path fill="#6a7899" d="m1279 594 9 1q-2 3-5 2h-2v-2z"/><path fill="#9ba6c7" d="m1159 582 3 1-2 7-2-6z"/><path fill="#3f59a4" d="m896 573 5 2v2h2v2h-4z"/><path fill="#899eb4" d="M1081 570v4h-5v-3z"/><path fill="#7879b5" d="M1169 567h4l-1 3h-2v2l-4-1 3-1z"/><path fill="#9bafc2" d="M1081 564q3 2 2 5v3l-1-4h-4l1-3z"/><path fill="#6d70aa" d="m1108 543-1 8-1-2h-3l2-4z"/><path fill="#7294c7" d="m903 517 4 2v3l-6-1z"/><path fill="#5a56ab" d="m1088 518 6 1v2l-5 1z"/><path fill="#9bb2c1" d="m1228 514 2 3 3 2-4 3-2-6z"/><path fill="#9ba7c1" d="m1201 514 5 1-2 4-4-4z"/><path fill="#5254a3" d="m1125 503 2 1v3h-2l-3 3v-6l3 1z"/><path fill="#a7bfc8" d="M1272 629h2v6l-1-2-3 1-3-2h2l2-1z"/><path fill="#9caac3" d="M983 625h6l1 3h-8z"/><path fill="#a0b1ca" d="M1290 616v4l-6-3z"/><path fill="#4f7396" d="m1246 613 2 1-2 4-4 1 1-4z"/><path fill="#95a8c5" d="M1284 609v3l-3 1-1 3-1-3q2-3 5-4"/><path fill="#50606d" d="M1107 610h3l1 3h-3v7h-1z"/><path fill="#417ec5" d="M1025 605h2l1 6h-3l-1-5z"/><path fill="#405fa8" d="m820 587 2 4h2v4l-4-1z"/><path fill="#6280b9" d="M816 588q4 2 4 5v3l-4-1z"/><path fill="#7c8fa7" d="m1278 580 3 8-4-2v-5z"/><path fill="#6b8fab" d="M1005 576v2h-8v-2z"/><path fill="#5958aa" d="M1165 565h5v2h-2v2l-4-1z"/><path fill="#97aab1" d="m1066 561 1 5-3 1v-3h-2v-2z"/><path fill="#6892c9" d="m1022 557 1 2h6l-1 3v-2l-5 3-1-4z"/><path fill="#8e91c4" d="m1151 532 5 1 1 3h-4v-2h-2z"/><path fill="#898cc3" d="m1135 522 5 2v2h-7z"/><path fill="#a9c4c9" d="m1249 512 5 4-1 4-2-1z"/><path fill="#335db0" d="M858 513h2l-1 2h-2v3h-2l-1-4z"/><path fill="#4f4f9a" d="m1141 508 1 2-2 1-1 5-3-1q1-5 5-7"/></svg>