<svg xmlns="http://www.w3.org/2000/svg" width="420" height="420" viewBox="0 0 420 420" role="img" aria-label="Backpack — View product">
  <rect width="100%" height="100%" rx="28" ry="28" fill="#ffffff" />
  <path d="M140 170a70 70 0 0 1 140 0v20h16a24 24 0 0 1 24 24v110a24 24 0 0 1-24 24H124a24 24 0 0 1-24-24V214a24 24 0 0 1 24-24h16v-20Z" fill="#eae6de" stroke="#d9d3c8" stroke-width="2"/>
  <rect x="150" y="130" width="120" height="35" rx="12" fill="#111111"/>
  <rect x="140" y="230" width="140" height="60" rx="12" fill="#fff" stroke="#d9d3c8"/>
  <text x="50%" y="86%" text-anchor="middle" font-family="system-ui, -apple-system, Segoe UI, Roboto, Arial, sans-serif" font-size="22" fill="#111111">Backpack (placeholder)</text>
</svg>
