<svg xmlns="http://www.w3.org/2000/svg" width="512" height="512" viewBox="0 0 128 128" aria-hidden="true">
  <defs>
    <filter id="s" x="-20%" y="-20%" width="140%" height="140%">
      <feDropShadow dx="0" dy="2" stdDeviation="2" flood-opacity="0.15"/>
    </filter>
  </defs>
  <g fill="#111" filter="url(#s)">
    <path d="M64 10c-24 0-42 17-42 38 0 13 6 21 12 27 3 3 4 6 3 10-1 4 1 8 6 8h3v7a6 6 0 0 0 12 0v-7h6v7a6 6 0 0 0 12 0v-7h3c5 0 7-4 6-8-1-4 0-7 3-10 6-6 12-14 12-27 0-21-18-38-42-38Z"/>
    <circle cx="48" cy="58" r="8" fill="#fff"/>
    <circle cx="80" cy="58" r="8" fill="#fff"/>
    <circle cx="48" cy="58" r="4" />
    <circle cx="80" cy="58" r="4" />
    <rect x="56" y="72" width="16" height="6" rx="3" fill="#fff"/>
  </g>
</svg>
